<svg xmlns="http://www.w3.org/2000/svg" xmlns:xlink="http://www.w3.org/1999/xlink" version="1.1" id="Ebene_1" x="0px" y="0px" enable-background="new 0 0 340 272" xml:space="preserve" viewBox="67.83 93.01 96.96 109.57">
    <g>
		<polygon fill="#E6204C" points="128.51,148.44 125.65,140.71 122.14,144.95 122.51,147.42    "/>
		<path fill="#E6204C" d="M122.49,160.19l-5.11-33.92c-0.11-0.77-0.84-1.32-1.61-1.2l-20.4,3.08c-0.77,0.11-1.32,0.85-1.2,1.62    l2.1,13.85l1.27,8.41l1.8,12c0.11,0.78,0.83,1.32,1.61,1.2l20.05-3.01C121.96,162.07,122.64,161.15,122.49,160.19z     M101.06,137.59l3.64-4.94c0.82-1.1,2.37-1.33,3.47-0.52l4.93,3.64c1.1,0.81,1.33,2.37,0.52,3.47l-3.64,4.94    c-0.81,1.09-2.38,1.33-3.47,0.52l-4.93-3.64C100.49,140.26,100.26,138.68,101.06,137.59z M102.55,151.93    c-0.08-0.53,0.28-1.02,0.81-1.1l11.43-1.73c0.53-0.08,1.02,0.28,1.1,0.81c0.08,0.53-0.28,1.02-0.81,1.1l-11.43,1.73    c-0.05,0.01-0.1,0.01-0.15,0.01C103.03,152.75,102.62,152.41,102.55,151.93z M116,157.13l-11.43,1.73    c-0.05,0.01-0.1,0.01-0.15,0.01c-0.47,0-0.88-0.34-0.95-0.82c-0.08-0.53,0.28-1.02,0.81-1.1l11.43-1.73    c0.53-0.08,1.02,0.29,1.1,0.81C116.89,156.56,116.53,157.05,116,157.13z"/>
		<path fill="#E6204C" d="M108.44,143.04l3.64-4.94c0.18-0.25,0.13-0.6-0.12-0.78l-4.93-3.64c-0.25-0.18-0.6-0.12-0.78,0.12    l-3.64,4.94c-0.18,0.24-0.12,0.59,0.12,0.78l4.93,3.64C107.91,143.34,108.26,143.29,108.44,143.04z"/>
		<path fill="#E6204C" d="M161.53,118.02l-42-24.15c-1.99-1.15-4.46-1.15-6.45,0l-42,24.15c-2.01,1.16-3.25,3.3-3.25,5.63v48.29    c0,2.33,1.25,4.47,3.25,5.63l42,24.15c1,0.58,2.11,0.86,3.23,0.86s2.22-0.29,3.23-0.86l42-24.15c2.01-1.16,3.25-3.3,3.25-5.63    v-48.29C164.78,121.32,163.54,119.18,161.53,118.02z M140.32,135.88l-5.69,33.47c-0.07,0.4-0.2,0.78-0.39,1.14    c-0.74,1.38-2.34,2.15-3.88,1.89l-19.63-3.34c-1.55-0.25-2.71-1.43-3.01-2.89l-6.49,0.98c-1.81,0.27-3.54-1-3.81-2.81l-1.8-12    l-1.27-8.41l-2.09-13.86c-0.27-1.8,1.01-3.54,2.81-3.81l20.4-3.08c1.81-0.27,3.54,1,3.81,2.81l0.4,2.66l17.61,3    C139.3,131.97,140.67,133.89,140.32,135.88z"/>
		<path fill="#E6204C" d="M136.96,133.54l-16.99-2.89l1.77,11.76l2.65-3.2c0.39-0.48,0.99-0.7,1.6-0.6c0.61,0.11,1.1,0.52,1.32,1.1    l3.11,8.41c0.45,1.22-0.61,2.5-1.89,2.29l-5.73-0.98l0.88,5.84l5.2,0.89c0.53,0.09,0.88,0.58,0.79,1.11    c-0.08,0.47-0.49,0.8-0.95,0.8c-0.05,0-0.11,0-0.16-0.01l-4.57-0.78l0.45,2.98c0.05,0.32,0.05,0.64,0.01,0.95l3.48,0.59    c0.53,0.09,0.88,0.58,0.79,1.11c-0.08,0.47-0.49,0.8-0.95,0.8c-0.05,0-0.11,0-0.16-0.01l-4-0.68c-0.63,0.69-1.42,0.97-2.32,1.11    l-11.65,1.76c0.17,0.65,0.71,1.17,1.42,1.29l19.63,3.34c0.95,0.16,1.89-0.5,2.05-1.46l5.69-33.47    C138.59,134.62,137.94,133.7,136.96,133.54z"/>
	</g>
</svg>