<svg xmlns="http://www.w3.org/2000/svg" xmlns:xlink="http://www.w3.org/1999/xlink" version="1.1" id="Ebene_1" x="0px" y="0px" enable-background="new 0 0 340 272" xml:space="preserve" viewBox="175.23 93.01 96.96 109.57">
    <g>
        <path fill="#0098CF" d="M244.78,140.47l-1.9-2.4l-3.7-4.66l-2.55-3.21l-11.94-4.35l-0.03,7.28l13.21,9.61L244.78,140.47z      M236.17,135.02c-0.37,0.52-1.05,0.82-2.17,0.94l0.22,0.16c0.43,0.31,0.53,0.91,0.22,1.34c-0.19,0.26-0.48,0.4-0.78,0.4     c-0.19,0-0.38-0.06-0.55-0.18l-2.68-1.92c-0.35-0.25-0.49-0.71-0.34-1.12c0.15-0.41,0.56-0.66,0.99-0.62     c1.31,0.13,2.74,0.09,3.35-0.08c-0.08-0.12-0.21-0.26-0.41-0.4c-0.29-0.2-0.54-0.28-0.67-0.29c-0.32,0.3-0.83,0.34-1.2,0.07     c-0.43-0.31-0.53-0.91-0.22-1.34c0.62-0.87,1.99-0.87,3.2-0.01c0.49,0.35,0.88,0.79,1.1,1.27     C236.54,133.88,236.52,134.53,236.17,135.02z"/>
        <path fill="#0098CF" d="M223.35,147.65c0.99,0,1.8-0.81,1.8-1.81s-0.8-1.81-1.8-1.81s-1.81,0.81-1.8,1.81     C221.55,146.84,222.36,147.65,223.35,147.65z"/>
        <path fill="#0098CF" d="M208.94,144.59l-6.96-2.25l0.23,12.39l7.48,11.28l4.29-5.88L208.94,144.59z M203.4,152.25l-0.33-0.91     c-0.21-0.58-0.18-1.22,0.08-1.78s0.73-0.99,1.32-1.2l1.51-0.55c1.21-0.44,2.54,0.19,2.98,1.4l0.33,0.91     c0.21,0.58,0.19,1.22-0.08,1.78c-0.26,0.56-0.73,0.99-1.32,1.2l-1.51,0.55c-0.26,0.1-0.53,0.14-0.79,0.14     c-0.34,0-0.67-0.07-0.99-0.22C204.04,153.3,203.61,152.84,203.4,152.25z M210.37,155.95l-2.51,0.91l2.01,1.68     c0.4,0.34,0.46,0.94,0.12,1.35c-0.19,0.22-0.47,0.34-0.74,0.34c-0.21,0-0.43-0.07-0.61-0.22l-3.3-2.75     c-0.26-0.22-0.39-0.56-0.33-0.9s0.3-0.62,0.62-0.74l4.08-1.48c0.5-0.18,1.05,0.08,1.23,0.58     C211.11,155.21,210.86,155.76,210.37,155.95z"/>
        <path fill="#0098CF" d="M207.24,151.32c0.15-0.06,0.21-0.16,0.24-0.22c0.02-0.06,0.06-0.18,0.01-0.32l-0.33-0.9     c-0.06-0.17-0.22-0.28-0.39-0.28c-0.05,0-0.09,0-0.14,0.02l-1.51,0.55c-0.15,0.05-0.22,0.15-0.24,0.21s-0.06,0.18-0.01,0.32     l0.33,0.91c0.05,0.15,0.15,0.21,0.21,0.24c0.06,0.03,0.18,0.06,0.32,0.02L207.24,151.32z"/>
        <path fill="#0098CF" d="M222.74,133.15l-0.02-7.29l-11.94,4.35l-8.16,10.28l6.91,2.27L222.74,133.15z M209.69,133.39     c0.41-0.33,1.02-0.27,1.35,0.14l0.85,1.05l1.56-1.28l-0.85-1.05c-0.33-0.41-0.27-1.02,0.14-1.35c0.41-0.33,1.02-0.27,1.35,0.14     l1.46,1.78l1.46,1.78c0.33,0.41,0.27,1.02-0.14,1.35c-0.18,0.15-0.4,0.22-0.61,0.22c-0.28,0-0.55-0.12-0.74-0.35l-0.85-1.05     l-2.3,1.89c-0.18,0.15-0.4,0.22-0.61,0.22c-0.28,0-0.55-0.12-0.74-0.35l-1.47-1.79C209.22,134.33,209.28,133.72,209.69,133.39z"/>
        <path fill="#0098CF" d="M215.75,159.34h15.91l4.91-15.15l-12.87-9.36l-12.86,9.36L215.75,159.34z M219.63,145.86     c0-2.05,1.67-3.72,3.72-3.72c2.06,0,3.72,1.66,3.72,3.72c0,1.09-0.48,2.08-1.24,2.76c0.76,0.67,1.24,1.66,1.24,2.76     c0,2.05-1.67,3.72-3.72,3.72c-2.05,0-3.72-1.67-3.72-3.72c0-1.09,0.48-2.08,1.24-2.76C220.11,147.95,219.63,146.96,219.63,145.86     z"/>
        <path fill="#0098CF" d="M268.93,118.02l-42-24.15c-1.99-1.15-4.46-1.15-6.45,0l-42,24.15c-2.01,1.16-3.25,3.3-3.25,5.63v48.29     c0,2.33,1.25,4.47,3.25,5.63l42,24.15c1,0.58,2.11,0.86,3.23,0.86s2.22-0.29,3.23-0.86l42-24.15c2.01-1.16,3.25-3.3,3.25-5.63     v-48.29C272.18,121.32,270.94,119.18,268.93,118.02z M247.33,141.05l-0.26,14c0,0.18-0.06,0.36-0.16,0.51l-8.39,12.65     c-0.07,0.11-0.16,0.2-0.27,0.27c-0.1,0.08-0.22,0.14-0.35,0.17l-13.99,3.37c-0.07,0.02-0.15,0.03-0.22,0.03s-0.15-0.01-0.22-0.03     l-13.99-3.37c-0.13-0.04-0.25-0.1-0.36-0.18c-0.1-0.07-0.19-0.16-0.26-0.26l-8.39-12.65c-0.1-0.15-0.16-0.33-0.16-0.51l-0.26-14     c0-0.12,0.02-0.24,0.06-0.35c0.04-0.12,0.09-0.22,0.17-0.32l9.17-11.56c0.11-0.13,0.25-0.24,0.42-0.3l13.47-4.91     c0.12-0.05,0.24-0.06,0.36-0.06s0.24,0.02,0.36,0.06l13.46,4.91c0.16,0.06,0.31,0.16,0.42,0.3l2.72,3.42l3.7,4.66l2.76,3.47     c0.08,0.1,0.14,0.21,0.17,0.33C247.33,140.81,247.35,140.93,247.33,141.05z"/>
        <path fill="#0098CF" d="M233.43,160.13l4.29,5.88l7.47-11.28l0.24-12.39l-6.96,2.25L233.43,160.13z M240.64,152.77     c0.18-0.5,0.73-0.75,1.23-0.56c0.5,0.18,0.75,0.73,0.56,1.23l-1.27,3.38c-0.13,0.35-0.46,0.59-0.83,0.62c-0.02,0-0.05,0-0.07,0     c-0.35,0-0.67-0.18-0.84-0.49l-2.69-4.87c-0.26-0.46-0.09-1.04,0.37-1.3c0.45-0.26,1.03-0.09,1.31,0.38l1.69,3.06L240.64,152.77z     "/>
        <path fill="#0098CF" d="M223.35,153.19c1,0,1.8-0.81,1.8-1.81s-0.81-1.81-1.8-1.81c-0.99,0-1.8,0.81-1.8,1.81     S222.35,153.19,223.35,153.19z"/>
        <path fill="#0098CF" d="M215.54,161.26l-4.23,5.86l12.39,2.98l12.4-2.98l-4.23-5.86H215.54z M220.69,168.76     c-1.67,0-2.93-0.88-2.93-2.05c0-0.79,0.55-1.62,1.79-2.62h-0.85c-0.53,0-0.96-0.43-0.96-0.96c0-0.53,0.43-0.96,0.96-0.96h3.95     c0.44,0,0.82,0.29,0.93,0.71c0.11,0.42-0.07,0.86-0.45,1.08c-1.57,0.89-3.09,2.09-3.42,2.66c0.16,0.1,0.49,0.22,0.97,0.22     c0.56,0,0.91-0.17,1.03-0.26c0.06-0.47,0.46-0.83,0.95-0.83c0.53,0,0.96,0.43,0.96,0.96     C223.62,167.88,222.36,168.76,220.69,168.76z M230.83,166.3l-3.95,2.32c-0.15,0.09-0.31,0.13-0.48,0.13     c-0.17,0-0.33-0.05-0.48-0.13c-0.3-0.17-0.48-0.49-0.48-0.83v-4.63c0-0.53,0.43-0.96,0.96-0.96c0.53,0,0.96,0.43,0.96,0.96v2.96     l2.51-1.48c0.46-0.27,1.05-0.11,1.3,0.35C231.44,165.45,231.29,166.03,230.83,166.3z"/>
    </g>
</svg>