<?xml version="1.0" encoding="UTF-8" standalone="no"?>
<!-- Created with Inkscape (http://www.inkscape.org/) -->

<svg
   xmlns:dc="http://purl.org/dc/elements/1.1/"
   xmlns:cc="http://creativecommons.org/ns#"
   xmlns:rdf="http://www.w3.org/1999/02/22-rdf-syntax-ns#"
   xmlns:svg="http://www.w3.org/2000/svg"
   xmlns="http://www.w3.org/2000/svg"
   xmlns:sodipodi="http://sodipodi.sourceforge.net/DTD/sodipodi-0.dtd"
   xmlns:inkscape="http://www.inkscape.org/namespaces/inkscape"
   version="1.1"
   id="svg834"
   xml:space="preserve"
   width="420"
   height="100"
   viewBox="0 0 420 100"
   sodipodi:docname="gg-logo.svg"
   inkscape:version="0.92.3 (2405546, 2018-03-11)"><metadata
     id="metadata840"><rdf:RDF><cc:Work
         rdf:about=""><dc:format>image/svg+xml</dc:format><dc:type
           rdf:resource="http://purl.org/dc/dcmitype/StillImage" /><dc:title></dc:title></cc:Work></rdf:RDF></metadata><defs
     id="defs838" /><sodipodi:namedview
     pagecolor="#ffffff"
     bordercolor="#666666"
     borderopacity="1"
     objecttolerance="10"
     gridtolerance="10"
     guidetolerance="10"
     inkscape:pageopacity="0"
     inkscape:pageshadow="2"
     inkscape:window-width="1916"
     inkscape:window-height="1037"
     id="namedview836"
     showgrid="false"
     inkscape:zoom="2.0499344"
     inkscape:cx="239.5658"
     inkscape:cy="12.494912"
     inkscape:window-x="0"
     inkscape:window-y="18"
     inkscape:window-maximized="0"
     inkscape:current-layer="g842" /><g
     id="g842"
     inkscape:groupmode="layer"
     inkscape:label="ink_ext_XXXXXX"
     transform="matrix(1.3333333,0,0,-1.3333333,0,100)"><g
       id="g894"
       transform="matrix(1.0061134,0,0,1.0061134,-31.925996,-30.337245)"><path
         d="M 181.755,104.661 162.06,95.4387 V 85.3531 h 52.43 v 10.3395 l -32.735,8.9684"
         style="fill:#000000;fill-opacity:1;fill-rule:nonzero;stroke:none;stroke-width:0.1"
         id="path846"
         inkscape:connector-curvature="0" /><path
         d="m 54.6543,43.4066 v -8.7007 c 0,0 -3.5141,-4.5168 -10.2063,-4.5168 -7.1945,0 -12.716,5.5211 -12.716,12.2136 0,6.6922 5.5215,12.2137 12.716,12.2137 6.5254,0 9.704,-4.6848 9.704,-4.6848 l -3.1786,-3.1789 c 0,0 -2.175,3.3461 -6.5254,3.3461 -4.3496,0 -7.696,-3.3461 -7.696,-7.6961 0,-4.3504 3.3464,-7.6968 7.696,-7.6968 3.5137,0 5.1868,1.841 5.1868,1.841 v 3.1785 H 45.452 v 3.6812 h 9.2023"
         style="fill:#000000;fill-opacity:1;fill-rule:nonzero;stroke:none;stroke-width:0.1"
         id="path848"
         inkscape:connector-curvature="0" /><path
         d="m 73.732,49.5969 h -5.1863 v -6.1903 h 5.1863 c 1.841,0 3.1789,1.3383 3.1789,3.0118 0,1.8402 -1.3379,3.1785 -3.1789,3.1785 z m -10.2058,4.5176 h 10.373 c 4.6848,0 8.0313,-3.4129 8.0313,-7.6961 0,-5.0196 -4.1828,-6.8598 -4.1828,-6.8598 l 5.0199,-8.8676 h -5.3547 l -4.5176,8.1981 H 68.5457 V 30.691 h -5.0195 v 23.4235"
         style="fill:#000000;fill-opacity:1;fill-rule:nonzero;stroke:none;stroke-width:0.1"
         id="path850"
         inkscape:connector-curvature="0" /><path
         d="M 99.8379,48.2586 96.993,40.5621 h 5.689 z M 95.3199,36.2121 93.3125,30.691 H 87.959 l 9.2019,23.4235 h 5.3531 l 9.203,-23.4235 h -5.354 l -2.008,5.5211 h -9.0351"
         style="fill:#000000;fill-opacity:1;fill-rule:nonzero;stroke:none;stroke-width:0.1"
         id="path852"
         inkscape:connector-curvature="0" /><path
         d="M 139.327,54.1145 V 30.691 h -4.351 L 123.432,45.5813 V 30.691 h -5.019 v 23.4235 h 4.349 l 11.545,-14.8911 v 14.8911 h 5.02"
         style="fill:#000000;fill-opacity:1;fill-rule:nonzero;stroke:none;stroke-width:0.1"
         id="path854"
         inkscape:connector-curvature="0" /><path
         d="M 153.72,49.5969 V 35.2082 h 3.681 c 3.849,0 7.027,3.1789 7.027,7.1945 0,4.0157 -3.011,7.1942 -7.027,7.1942 z m 3.681,4.5176 c 6.86,0 12.047,-5.1864 12.047,-11.7118 0,-6.5254 -5.187,-11.7117 -12.047,-11.7117 h -8.7 v 23.4235 h 8.7"
         style="fill:#000000;fill-opacity:1;fill-rule:nonzero;stroke:none;stroke-width:0.1"
         id="path856"
         inkscape:connector-curvature="0" /><path
         d="m 206.596,43.4066 v -8.7007 c 0,0 -3.514,-4.5168 -10.207,-4.5168 -7.194,0 -12.715,5.5211 -12.715,12.2136 0,6.6922 5.521,12.2137 12.715,12.2137 6.526,0 9.705,-4.6848 9.705,-4.6848 l -3.179,-3.1789 c 0,0 -2.174,3.3461 -6.526,3.3461 -4.35,0 -7.696,-3.3461 -7.696,-7.6961 0,-4.3504 3.346,-7.6968 7.696,-7.6968 3.515,0 5.187,1.841 5.187,1.841 v 3.1785 h -4.183 v 3.6812 h 9.203"
         style="fill:#000000;fill-opacity:1;fill-rule:nonzero;stroke:none;stroke-width:0.1"
         id="path858"
         inkscape:connector-curvature="0" /><path
         d="m 224.671,48.2586 -2.845,-7.6965 h 5.69 z m -4.517,-12.0465 -2.008,-5.5211 h -5.354 l 9.202,23.4235 h 5.354 L 236.55,30.691 h -5.353 l -2.008,5.5211 h -9.035"
         style="fill:#000000;fill-opacity:1;fill-rule:nonzero;stroke:none;stroke-width:0.1"
         id="path860"
         inkscape:connector-curvature="0" /><path
         d="m 253.452,49.5969 h -5.186 v -6.1903 h 5.186 c 1.841,0 3.179,1.3383 3.179,3.0118 0,1.8402 -1.338,3.1785 -3.179,3.1785 z m -10.206,4.5176 h 10.373 c 4.685,0 8.032,-3.4129 8.032,-7.6961 0,-5.0196 -4.183,-6.8598 -4.183,-6.8598 l 5.02,-8.8676 h -5.355 l -4.517,8.1981 h -4.35 V 30.691 h -5.02 v 23.4235"
         style="fill:#000000;fill-opacity:1;fill-rule:nonzero;stroke:none;stroke-width:0.1"
         id="path862"
         inkscape:connector-curvature="0" /><path
         d="m 279.558,48.2586 -2.845,-7.6965 h 5.69 z M 275.04,36.2121 273.033,30.691 h -5.354 l 9.202,23.4235 h 5.354 l 9.202,-23.4235 h -5.354 l -2.008,5.5211 h -9.035"
         style="fill:#000000;fill-opacity:1;fill-rule:nonzero;stroke:none;stroke-width:0.1"
         id="path864"
         inkscape:connector-curvature="0" /><path
         d="m 318.378,43.4066 v -8.7007 c 0,0 -3.513,-4.5168 -10.206,-4.5168 -7.194,0 -12.716,5.5211 -12.716,12.2136 0,6.6922 5.522,12.2137 12.716,12.2137 6.526,0 9.704,-4.6848 9.704,-4.6848 l -3.178,-3.1789 c 0,0 -2.175,3.3461 -6.526,3.3461 -4.349,0 -7.696,-3.3461 -7.696,-7.6961 0,-4.3504 3.347,-7.6968 7.696,-7.6968 3.514,0 5.187,1.841 5.187,1.841 v 3.1785 h -4.183 v 3.6812 h 9.202"
         style="fill:#000000;fill-opacity:1;fill-rule:nonzero;stroke:none;stroke-width:0.1"
         id="path866"
         inkscape:connector-curvature="0" /><path
         d="M 344.818,35.2082 V 30.691 H 327.25 v 23.4235 h 17.234 V 49.5969 H 332.27 v -4.6844 h 9.536 v -4.5176 h -9.536 v -5.1867 h 12.548"
         style="fill:#000000;fill-opacity:1;fill-rule:nonzero;stroke:none;stroke-width:0.1"
         id="path868"
         inkscape:connector-curvature="0" /></g></g></svg>