<svg xmlns="http://www.w3.org/2000/svg" xmlns:xlink="http://www.w3.org/1999/xlink" version="1.1" id="Ebene_1" x="0px" y="0px" enable-background="new 0 0 340 272" xml:space="preserve" viewBox="122.33 0 95.34 109.57">
    <g>
		<path fill="#89A049" d="M176.37,76.03c-0.03-0.08-0.1-0.13-0.18-0.13h-12.4c-0.08,0-0.16,0.05-0.18,0.13l-1.14,3.82    c-0.02,0.07,0,0.13,0.03,0.16c0.03,0.03,0.07,0.07,0.15,0.07h14.68c0.08,0,0.12-0.04,0.15-0.07c0.03-0.03,0.05-0.08,0.03-0.16    L176.37,76.03z"/>
		<path fill="#89A049" d="M190.09,62.82h-40.15c-0.11,0-0.21,0.08-0.24,0.18l-0.35,1.15l-1.1,3.67l-0.78,2.6    c-0.03,0.1,0.01,0.17,0.04,0.22c0.03,0.05,0.1,0.1,0.2,0.1h44.57c0.1,0,0.17-0.05,0.2-0.1c0.03-0.04,0.06-0.12,0.06-0.21    L190.33,63C190.3,62.89,190.2,62.82,190.09,62.82z"/>
		<path fill="#89A049" d="M150.04,26.06c-0.02,0-0.03,0.01-0.03,0.03v27.75c0,0.02,0.01,0.03,0.03,0.03h39.92    c0.02,0,0.03-0.01,0.03-0.03V26.09c0-0.02-0.01-0.03-0.03-0.03H150.04z"/>
		<path fill="#89A049" d="M193.76,24.51c0-1.24-1-2.26-2.25-2.26H156.9h-3.67h-4.77c-1.23,0-2.25,1.01-2.25,2.26h-0.01v33.16h47.56    V24.51z M191.88,53.84c0,1.06-0.85,1.93-1.92,1.93h-39.92c-1.05,0-1.92-0.86-1.92-1.93V26.08c0-1.06,0.85-1.93,1.92-1.93h39.92    c1.06,0,1.93,0.87,1.92,1.94V53.84z"/>
		<path fill="#89A049" d="M214.47,25.01l-41.3-24.15c-1.96-1.15-4.38-1.15-6.34,0l-41.3,24.15c-1.98,1.16-3.2,3.3-3.2,5.63v48.29    c0,2.33,1.22,4.47,3.2,5.63l41.3,24.15c0.99,0.58,2.07,0.86,3.17,0.86s2.19-0.29,3.17-0.86l41.3-24.15    c1.97-1.16,3.2-3.3,3.2-5.63V30.64C217.67,28.31,216.45,26.17,214.47,25.01z M201.66,83.74c-0.71,0.95-1.78,1.49-2.96,1.49h-8.06    h-3.67H141.3c-1.18,0-2.25-0.54-2.96-1.49c-0.71-0.94-0.92-2.13-0.58-3.26l6.55-22V24.51c0-2.29,1.87-4.16,4.16-4.16h4.77h3.67    h34.61c2.3,0,4.16,1.86,4.16,4.16v33.98l6.55,22C202.57,81.61,202.36,82.8,201.66,83.74z"/>
		<path fill="#89A049" d="M194.03,59.57h-48.06l-6.39,21.45c-0.16,0.55-0.06,1.13,0.28,1.59c0.34,0.46,0.87,0.72,1.44,0.72h45.67    h3.67h8.06c0.57,0,1.1-0.26,1.44-0.72c0.34-0.46,0.44-1.04,0.28-1.59L194.03,59.57z M153.99,76.33h-0.75    c-0.52,0-0.95-0.42-0.95-0.95c0-0.52,0.42-0.95,0.95-0.95h0.75c0.53,0,0.95,0.42,0.95,0.95    C154.94,75.9,154.52,76.33,153.99,76.33z M157.34,76.33h-0.75c-0.52,0-0.95-0.42-0.95-0.95c0-0.52,0.42-0.95,0.95-0.95h0.75    c0.52,0,0.95,0.42,0.95,0.95C158.29,75.9,157.87,76.33,157.34,76.33z M179,81.15c-0.38,0.53-0.99,0.84-1.66,0.84h-14.68    c-0.65,0-1.26-0.31-1.66-0.84c-0.4-0.53-0.52-1.2-0.33-1.84l1.14-3.82c0.26-0.88,1.07-1.49,1.99-1.49h12.4    c0.91,0,1.73,0.61,1.99,1.49l1.14,3.82C179.52,79.95,179.4,80.62,179,81.15z M183.42,76.33h-0.75c-0.52,0-0.95-0.42-0.95-0.95    c0-0.52,0.42-0.95,0.95-0.95h0.75c0.52,0,0.94,0.42,0.95,0.95C184.37,75.9,183.95,76.33,183.42,76.33z M186.75,76.33H186    c-0.52,0-0.95-0.42-0.95-0.95c0-0.52,0.42-0.95,0.95-0.95h0.75c0.53,0,0.96,0.42,0.95,0.95C187.7,75.9,187.28,76.33,186.75,76.33    z M194,71.79c-0.4,0.55-1.03,0.87-1.72,0.87h-44.57c-0.68,0-1.31-0.32-1.72-0.87c-0.41-0.55-0.54-1.24-0.34-1.9l0.78-2.6    l1.1-3.67l0.35-1.16c0.27-0.91,1.11-1.54,2.05-1.54h40.15c0.93,0,1.78,0.63,2.05,1.54l2.21,7.43    C194.53,70.55,194.41,71.24,194,71.79z"/>
	</g>
</svg>