<?xml version="1.0" encoding="utf-8"?>
<!-- Generator: Adobe Illustrator 25.4.1, SVG Export Plug-In . SVG Version: 6.00 Build 0)  -->
<svg version="1.1" id="Ebene_1" xmlns="http://www.w3.org/2000/svg" xmlns:xlink="http://www.w3.org/1999/xlink" x="0px" y="0px"
	 viewBox="0 0 340 272" enable-background="new 0 0 340 272" xml:space="preserve">
<g>
	<g>
		<g>
			<path fill="#0098CF" d="M244.78,140.47l-1.9-2.4l-3.7-4.66l-2.55-3.21l-11.94-4.35l-0.03,7.28l13.21,9.61L244.78,140.47z
				 M236.17,135.02c-0.37,0.52-1.05,0.82-2.17,0.94l0.22,0.16c0.43,0.31,0.53,0.91,0.22,1.34c-0.19,0.26-0.48,0.4-0.78,0.4
				c-0.19,0-0.38-0.06-0.55-0.18l-2.68-1.92c-0.35-0.25-0.49-0.71-0.34-1.12c0.15-0.41,0.56-0.66,0.99-0.62
				c1.31,0.13,2.74,0.09,3.35-0.08c-0.08-0.12-0.21-0.26-0.41-0.4c-0.29-0.2-0.54-0.28-0.67-0.29c-0.32,0.3-0.83,0.34-1.2,0.07
				c-0.43-0.31-0.53-0.91-0.22-1.34c0.62-0.87,1.99-0.87,3.2-0.01c0.49,0.35,0.88,0.79,1.1,1.27
				C236.54,133.88,236.52,134.53,236.17,135.02z"/>
			<path fill="#0098CF" d="M223.35,147.65c0.99,0,1.8-0.81,1.8-1.81s-0.8-1.81-1.8-1.81s-1.81,0.81-1.8,1.81
				C221.55,146.84,222.36,147.65,223.35,147.65z"/>
			<path fill="#0098CF" d="M208.94,144.59l-6.96-2.25l0.23,12.39l7.48,11.28l4.29-5.88L208.94,144.59z M203.4,152.25l-0.33-0.91
				c-0.21-0.58-0.18-1.22,0.08-1.78s0.73-0.99,1.32-1.2l1.51-0.55c1.21-0.44,2.54,0.19,2.98,1.4l0.33,0.91
				c0.21,0.58,0.19,1.22-0.08,1.78c-0.26,0.56-0.73,0.99-1.32,1.2l-1.51,0.55c-0.26,0.1-0.53,0.14-0.79,0.14
				c-0.34,0-0.67-0.07-0.99-0.22C204.04,153.3,203.61,152.84,203.4,152.25z M210.37,155.95l-2.51,0.91l2.01,1.68
				c0.4,0.34,0.46,0.94,0.12,1.35c-0.19,0.22-0.47,0.34-0.74,0.34c-0.21,0-0.43-0.07-0.61-0.22l-3.3-2.75
				c-0.26-0.22-0.39-0.56-0.33-0.9s0.3-0.62,0.62-0.74l4.08-1.48c0.5-0.18,1.05,0.08,1.23,0.58
				C211.11,155.21,210.86,155.76,210.37,155.95z"/>
			<path fill="#0098CF" d="M207.24,151.32c0.15-0.06,0.21-0.16,0.24-0.22c0.02-0.06,0.06-0.18,0.01-0.32l-0.33-0.9
				c-0.06-0.17-0.22-0.28-0.39-0.28c-0.05,0-0.09,0-0.14,0.02l-1.51,0.55c-0.15,0.05-0.22,0.15-0.24,0.21s-0.06,0.18-0.01,0.32
				l0.33,0.91c0.05,0.15,0.15,0.21,0.21,0.24c0.06,0.03,0.18,0.06,0.32,0.02L207.24,151.32z"/>
			<path fill="#0098CF" d="M222.74,133.15l-0.02-7.29l-11.94,4.35l-8.16,10.28l6.91,2.27L222.74,133.15z M209.69,133.39
				c0.41-0.33,1.02-0.27,1.35,0.14l0.85,1.05l1.56-1.28l-0.85-1.05c-0.33-0.41-0.27-1.02,0.14-1.35c0.41-0.33,1.02-0.27,1.35,0.14
				l1.46,1.78l1.46,1.78c0.33,0.41,0.27,1.02-0.14,1.35c-0.18,0.15-0.4,0.22-0.61,0.22c-0.28,0-0.55-0.12-0.74-0.35l-0.85-1.05
				l-2.3,1.89c-0.18,0.15-0.4,0.22-0.61,0.22c-0.28,0-0.55-0.12-0.74-0.35l-1.47-1.79C209.22,134.33,209.28,133.72,209.69,133.39z"
				/>
			<path fill="#0098CF" d="M215.75,159.34h15.91l4.91-15.15l-12.87-9.36l-12.86,9.36L215.75,159.34z M219.63,145.86
				c0-2.05,1.67-3.72,3.72-3.72c2.06,0,3.72,1.66,3.72,3.72c0,1.09-0.48,2.08-1.24,2.76c0.76,0.67,1.24,1.66,1.24,2.76
				c0,2.05-1.67,3.72-3.72,3.72c-2.05,0-3.72-1.67-3.72-3.72c0-1.09,0.48-2.08,1.24-2.76C220.11,147.95,219.63,146.96,219.63,145.86
				z"/>
			<path fill="#0098CF" d="M268.93,118.02l-42-24.15c-1.99-1.15-4.46-1.15-6.45,0l-42,24.15c-2.01,1.16-3.25,3.3-3.25,5.63v48.29
				c0,2.33,1.25,4.47,3.25,5.63l42,24.15c1,0.58,2.11,0.86,3.23,0.86s2.22-0.29,3.23-0.86l42-24.15c2.01-1.16,3.25-3.3,3.25-5.63
				v-48.29C272.18,121.32,270.94,119.18,268.93,118.02z M247.33,141.05l-0.26,14c0,0.18-0.06,0.36-0.16,0.51l-8.39,12.65
				c-0.07,0.11-0.16,0.2-0.27,0.27c-0.1,0.08-0.22,0.14-0.35,0.17l-13.99,3.37c-0.07,0.02-0.15,0.03-0.22,0.03s-0.15-0.01-0.22-0.03
				l-13.99-3.37c-0.13-0.04-0.25-0.1-0.36-0.18c-0.1-0.07-0.19-0.16-0.26-0.26l-8.39-12.65c-0.1-0.15-0.16-0.33-0.16-0.51l-0.26-14
				c0-0.12,0.02-0.24,0.06-0.35c0.04-0.12,0.09-0.22,0.17-0.32l9.17-11.56c0.11-0.13,0.25-0.24,0.42-0.3l13.47-4.91
				c0.12-0.05,0.24-0.06,0.36-0.06s0.24,0.02,0.36,0.06l13.46,4.91c0.16,0.06,0.31,0.16,0.42,0.3l2.72,3.42l3.7,4.66l2.76,3.47
				c0.08,0.1,0.14,0.21,0.17,0.33C247.33,140.81,247.35,140.93,247.33,141.05z"/>
			<path fill="#0098CF" d="M233.43,160.13l4.29,5.88l7.47-11.28l0.24-12.39l-6.96,2.25L233.43,160.13z M240.64,152.77
				c0.18-0.5,0.73-0.75,1.23-0.56c0.5,0.18,0.75,0.73,0.56,1.23l-1.27,3.38c-0.13,0.35-0.46,0.59-0.83,0.62c-0.02,0-0.05,0-0.07,0
				c-0.35,0-0.67-0.18-0.84-0.49l-2.69-4.87c-0.26-0.46-0.09-1.04,0.37-1.3c0.45-0.26,1.03-0.09,1.31,0.38l1.69,3.06L240.64,152.77z
				"/>
			<path fill="#0098CF" d="M223.35,153.19c1,0,1.8-0.81,1.8-1.81s-0.81-1.81-1.8-1.81c-0.99,0-1.8,0.81-1.8,1.81
				S222.35,153.19,223.35,153.19z"/>
			<path fill="#0098CF" d="M215.54,161.26l-4.23,5.86l12.39,2.98l12.4-2.98l-4.23-5.86H215.54z M220.69,168.76
				c-1.67,0-2.93-0.88-2.93-2.05c0-0.79,0.55-1.62,1.79-2.62h-0.85c-0.53,0-0.96-0.43-0.96-0.96c0-0.53,0.43-0.96,0.96-0.96h3.95
				c0.44,0,0.82,0.29,0.93,0.71c0.11,0.42-0.07,0.86-0.45,1.08c-1.57,0.89-3.09,2.09-3.42,2.66c0.16,0.1,0.49,0.22,0.97,0.22
				c0.56,0,0.91-0.17,1.03-0.26c0.06-0.47,0.46-0.83,0.95-0.83c0.53,0,0.96,0.43,0.96,0.96
				C223.62,167.88,222.36,168.76,220.69,168.76z M230.83,166.3l-3.95,2.32c-0.15,0.09-0.31,0.13-0.48,0.13
				c-0.17,0-0.33-0.05-0.48-0.13c-0.3-0.17-0.48-0.49-0.48-0.83v-4.63c0-0.53,0.43-0.96,0.96-0.96c0.53,0,0.96,0.43,0.96,0.96v2.96
				l2.51-1.48c0.46-0.27,1.05-0.11,1.3,0.35C231.44,165.45,231.29,166.03,230.83,166.3z"/>
		</g>
		<g>
			<path fill="#89A049" d="M176.37,76.03c-0.03-0.08-0.1-0.13-0.18-0.13h-12.4c-0.08,0-0.16,0.05-0.18,0.13l-1.14,3.82
				c-0.02,0.07,0,0.13,0.03,0.16c0.03,0.03,0.07,0.07,0.15,0.07h14.68c0.08,0,0.12-0.04,0.15-0.07c0.03-0.03,0.05-0.08,0.03-0.16
				L176.37,76.03z"/>
			<path fill="#89A049" d="M190.09,62.82h-40.15c-0.11,0-0.21,0.08-0.24,0.18l-0.35,1.15l-1.1,3.67l-0.78,2.6
				c-0.03,0.1,0.01,0.17,0.04,0.22c0.03,0.05,0.1,0.1,0.2,0.1h44.57c0.1,0,0.17-0.05,0.2-0.1c0.03-0.04,0.06-0.12,0.06-0.21
				L190.33,63C190.3,62.89,190.2,62.82,190.09,62.82z"/>
			<path fill="#89A049" d="M150.04,26.06c-0.02,0-0.03,0.01-0.03,0.03v27.75c0,0.02,0.01,0.03,0.03,0.03h39.92
				c0.02,0,0.03-0.01,0.03-0.03V26.09c0-0.02-0.01-0.03-0.03-0.03H150.04z"/>
			<path fill="#89A049" d="M193.76,24.51c0-1.24-1-2.26-2.25-2.26H156.9h-3.67h-4.77c-1.23,0-2.25,1.01-2.25,2.26h-0.01v33.16h47.56
				V24.51z M191.88,53.84c0,1.06-0.85,1.93-1.92,1.93h-39.92c-1.05,0-1.92-0.86-1.92-1.93V26.08c0-1.06,0.85-1.93,1.92-1.93h39.92
				c1.06,0,1.93,0.87,1.92,1.94V53.84z"/>
			<path fill="#89A049" d="M214.47,25.01l-41.3-24.15c-1.96-1.15-4.38-1.15-6.34,0l-41.3,24.15c-1.98,1.16-3.2,3.3-3.2,5.63v48.29
				c0,2.33,1.22,4.47,3.2,5.63l41.3,24.15c0.99,0.58,2.07,0.86,3.17,0.86s2.19-0.29,3.17-0.86l41.3-24.15
				c1.97-1.16,3.2-3.3,3.2-5.63V30.64C217.67,28.31,216.45,26.17,214.47,25.01z M201.66,83.74c-0.71,0.95-1.78,1.49-2.96,1.49h-8.06
				h-3.67H141.3c-1.18,0-2.25-0.54-2.96-1.49c-0.71-0.94-0.92-2.13-0.58-3.26l6.55-22V24.51c0-2.29,1.87-4.16,4.16-4.16h4.77h3.67
				h34.61c2.3,0,4.16,1.86,4.16,4.16v33.98l6.55,22C202.57,81.61,202.36,82.8,201.66,83.74z"/>
			<path fill="#89A049" d="M194.03,59.57h-48.06l-6.39,21.45c-0.16,0.55-0.06,1.13,0.28,1.59c0.34,0.46,0.87,0.72,1.44,0.72h45.67
				h3.67h8.06c0.57,0,1.1-0.26,1.44-0.72c0.34-0.46,0.44-1.04,0.28-1.59L194.03,59.57z M153.99,76.33h-0.75
				c-0.52,0-0.95-0.42-0.95-0.95c0-0.52,0.42-0.95,0.95-0.95h0.75c0.53,0,0.95,0.42,0.95,0.95
				C154.94,75.9,154.52,76.33,153.99,76.33z M157.34,76.33h-0.75c-0.52,0-0.95-0.42-0.95-0.95c0-0.52,0.42-0.95,0.95-0.95h0.75
				c0.52,0,0.95,0.42,0.95,0.95C158.29,75.9,157.87,76.33,157.34,76.33z M179,81.15c-0.38,0.53-0.99,0.84-1.66,0.84h-14.68
				c-0.65,0-1.26-0.31-1.66-0.84c-0.4-0.53-0.52-1.2-0.33-1.84l1.14-3.82c0.26-0.88,1.07-1.49,1.99-1.49h12.4
				c0.91,0,1.73,0.61,1.99,1.49l1.14,3.82C179.52,79.95,179.4,80.62,179,81.15z M183.42,76.33h-0.75c-0.52,0-0.95-0.42-0.95-0.95
				c0-0.52,0.42-0.95,0.95-0.95h0.75c0.52,0,0.94,0.42,0.95,0.95C184.37,75.9,183.95,76.33,183.42,76.33z M186.75,76.33H186
				c-0.52,0-0.95-0.42-0.95-0.95c0-0.52,0.42-0.95,0.95-0.95h0.75c0.53,0,0.96,0.42,0.95,0.95C187.7,75.9,187.28,76.33,186.75,76.33
				z M194,71.79c-0.4,0.55-1.03,0.87-1.72,0.87h-44.57c-0.68,0-1.31-0.32-1.72-0.87c-0.41-0.55-0.54-1.24-0.34-1.9l0.78-2.6
				l1.1-3.67l0.35-1.16c0.27-0.91,1.11-1.54,2.05-1.54h40.15c0.93,0,1.78,0.63,2.05,1.54l2.21,7.43
				C194.53,70.55,194.41,71.24,194,71.79z"/>
		</g>
		<g>
			<polygon fill="#E6204C" points="128.51,148.44 125.65,140.71 122.14,144.95 122.51,147.42 			"/>
			<path fill="#E6204C" d="M122.49,160.19l-5.11-33.92c-0.11-0.77-0.84-1.32-1.61-1.2l-20.4,3.08c-0.77,0.11-1.32,0.85-1.2,1.62
				l2.1,13.85l1.27,8.41l1.8,12c0.11,0.78,0.83,1.32,1.61,1.2l20.05-3.01C121.96,162.07,122.64,161.15,122.49,160.19z
				 M101.06,137.59l3.64-4.94c0.82-1.1,2.37-1.33,3.47-0.52l4.93,3.64c1.1,0.81,1.33,2.37,0.52,3.47l-3.64,4.94
				c-0.81,1.09-2.38,1.33-3.47,0.52l-4.93-3.64C100.49,140.26,100.26,138.68,101.06,137.59z M102.55,151.93
				c-0.08-0.53,0.28-1.02,0.81-1.1l11.43-1.73c0.53-0.08,1.02,0.28,1.1,0.81c0.08,0.53-0.28,1.02-0.81,1.1l-11.43,1.73
				c-0.05,0.01-0.1,0.01-0.15,0.01C103.03,152.75,102.62,152.41,102.55,151.93z M116,157.13l-11.43,1.73
				c-0.05,0.01-0.1,0.01-0.15,0.01c-0.47,0-0.88-0.34-0.95-0.82c-0.08-0.53,0.28-1.02,0.81-1.1l11.43-1.73
				c0.53-0.08,1.02,0.29,1.1,0.81C116.89,156.56,116.53,157.05,116,157.13z"/>
			<path fill="#E6204C" d="M108.44,143.04l3.64-4.94c0.18-0.25,0.13-0.6-0.12-0.78l-4.93-3.64c-0.25-0.18-0.6-0.12-0.78,0.12
				l-3.64,4.94c-0.18,0.24-0.12,0.59,0.12,0.78l4.93,3.64C107.91,143.34,108.26,143.29,108.44,143.04z"/>
			<path fill="#E6204C" d="M161.53,118.02l-42-24.15c-1.99-1.15-4.46-1.15-6.45,0l-42,24.15c-2.01,1.16-3.25,3.3-3.25,5.63v48.29
				c0,2.33,1.25,4.47,3.25,5.63l42,24.15c1,0.58,2.11,0.86,3.23,0.86s2.22-0.29,3.23-0.86l42-24.15c2.01-1.16,3.25-3.3,3.25-5.63
				v-48.29C164.78,121.32,163.54,119.18,161.53,118.02z M140.32,135.88l-5.69,33.47c-0.07,0.4-0.2,0.78-0.39,1.14
				c-0.74,1.38-2.34,2.15-3.88,1.89l-19.63-3.34c-1.55-0.25-2.71-1.43-3.01-2.89l-6.49,0.98c-1.81,0.27-3.54-1-3.81-2.81l-1.8-12
				l-1.27-8.41l-2.09-13.86c-0.27-1.8,1.01-3.54,2.81-3.81l20.4-3.08c1.81-0.27,3.54,1,3.81,2.81l0.4,2.66l17.61,3
				C139.3,131.97,140.67,133.89,140.32,135.88z"/>
			<path fill="#E6204C" d="M136.96,133.54l-16.99-2.89l1.77,11.76l2.65-3.2c0.39-0.48,0.99-0.7,1.6-0.6c0.61,0.11,1.1,0.52,1.32,1.1
				l3.11,8.41c0.45,1.22-0.61,2.5-1.89,2.29l-5.73-0.98l0.88,5.84l5.2,0.89c0.53,0.09,0.88,0.58,0.79,1.11
				c-0.08,0.47-0.49,0.8-0.95,0.8c-0.05,0-0.11,0-0.16-0.01l-4.57-0.78l0.45,2.98c0.05,0.32,0.05,0.64,0.01,0.95l3.48,0.59
				c0.53,0.09,0.88,0.58,0.79,1.11c-0.08,0.47-0.49,0.8-0.95,0.8c-0.05,0-0.11,0-0.16-0.01l-4-0.68c-0.63,0.69-1.42,0.97-2.32,1.11
				l-11.65,1.76c0.17,0.65,0.71,1.17,1.42,1.29l19.63,3.34c0.95,0.16,1.89-0.5,2.05-1.46l5.69-33.47
				C138.59,134.62,137.94,133.7,136.96,133.54z"/>
		</g>
	</g>
	<g>
		<path d="M27.86,246.45c0.73-0.73,1.59-1.09,2.62-1.09c1.03,0,1.89,0.36,2.62,1.09s1.09,1.59,1.09,2.6v9.55
			c0,1.01-0.34,1.87-1.01,2.57c-1.74,1.9-3.82,3.37-6.22,4.41s-4.88,1.57-7.45,1.57h-0.78c-3.38,0-6.52-0.84-9.4-2.52
			s-5.16-3.95-6.84-6.84c-1.66-2.88-2.5-6.02-2.5-9.41v-0.73c0-3.38,0.84-6.53,2.51-9.41s3.95-5.17,6.84-6.84
			c2.88-1.68,6.01-2.52,9.4-2.52h0.78c3.72,0,7.16,1.04,10.32,3.12c0.97,0.67,1.49,1.6,1.58,2.79c0.09,1.19-0.31,2.2-1.2,3.01
			c-0.63,0.56-1.38,0.88-2.23,0.95c-0.86,0.08-1.63-0.13-2.34-0.62c-1.89-1.23-3.94-1.85-6.13-1.85h-0.79c-3.12,0-5.79,1.11-8,3.32
			s-3.32,4.89-3.32,8.02v0.73c0,3.12,1.11,5.8,3.32,8.02c2.21,2.22,4.88,3.32,8,3.32h0.78c2.75,0,5.16-0.9,7.25-2.69v-7.99
			C26.77,248.03,27.13,247.17,27.86,246.45z"/>
		<path d="M71.66,267.14c0.41,1.19,0.24,2.3-0.5,3.32c-0.75,1.03-1.74,1.54-3.01,1.54c-0.78,0-1.49-0.23-2.14-0.7
			s-1.11-1.07-1.37-1.82l-9.59-28.88l-8.03,24.02c-0.15,0.37-0.34,0.72-0.56,1.04s-0.49,0.58-0.81,0.78
			c-0.32,0.21-0.66,0.37-1.03,0.5s-0.75,0.2-1.12,0.2c-1.31,0-2.31-0.51-3.04-1.54s-0.9-2.15-0.53-3.38l10.38-30.83
			c0.22-0.75,0.66-1.35,1.32-1.82c0.65-0.47,1.39-0.7,2.2-0.7h2.45c0.82,0,1.55,0.23,2.2,0.7s1.09,1.09,1.31,1.87L71.66,267.14z"/>
		<path d="M108.19,228.88c1.01,0,1.86,0.36,2.59,1.09c0.73,0.73,1.09,1.61,1.09,2.66v30.77c0,1.04-0.36,1.93-1.09,2.66
			c-0.73,0.73-1.59,1.09-2.62,1.09s-1.89-0.36-2.62-1.09s-1.09-1.61-1.09-2.66v-16.31l-7.2,16.87c-0.3,0.71-0.76,1.27-1.37,1.68
			c-0.62,0.41-1.3,0.62-2.03,0.62c-0.75,0-1.44-0.2-2.06-0.62c-0.64-0.41-1.1-0.97-1.4-1.68l-7.2-16.87v16.31
			c0,1.04-0.36,1.93-1.09,2.66c-0.73,0.73-1.59,1.09-2.62,1.09s-1.89-0.36-2.62-1.09s-1.09-1.61-1.09-2.66v-30.77
			c0-1.04,0.36-1.93,1.09-2.66c0.73-0.73,1.6-1.09,2.65-1.09h1.56c0.75,0,1.43,0.21,2.03,0.62c0.62,0.41,1.07,0.95,1.37,1.62
			L93.86,253l9.31-21.89c0.19-0.45,0.46-0.84,0.81-1.17c0.35-0.34,0.76-0.6,1.2-0.78c0.45-0.19,0.91-0.28,1.4-0.28H108.19
			L108.19,228.88z"/>
		<path d="M137.63,259.71c1.01,0,1.86,0.36,2.59,1.09s1.09,1.6,1.09,2.63s-0.36,1.9-1.09,2.63s-1.58,1.09-2.59,1.09h-16.45
			c-1.01,0-1.87-0.36-2.62-1.09s-1.12-1.61-1.12-2.66v-30.77c0-1.01,0.37-1.88,1.12-2.63s1.61-1.12,2.62-1.12h16.45
			c1.01,0,1.86,0.36,2.59,1.09s1.09,1.6,1.09,2.63s-0.36,1.9-1.09,2.63c-0.73,0.73-1.58,1.09-2.59,1.09h-12.77v7.99h7.97
			c1.04,0,1.92,0.36,2.65,1.09s1.09,1.6,1.09,2.63s-0.36,1.9-1.09,2.63c-0.73,0.73-1.6,1.09-2.65,1.09h-7.97v7.99L137.63,259.71
			L137.63,259.71z"/>
		<path d="M165.29,245.58c2.56,0.75,4.62,2.09,6.19,4.02s2.34,4.07,2.34,6.42v0.06c0,2.86-1.04,5.31-3.12,7.32
			c-2.64,2.54-5.8,3.78-9.48,3.74h-0.06h-1.67c-2.23,0-4.3-0.48-6.19-1.43c-1.89-0.95-3.4-2.23-4.51-3.82
			c-0.86-1.23-0.93-2.51-0.22-3.82c0.71-1.32,1.8-1.99,3.29-1.99c1.27,0.04,2.26,0.58,3.01,1.62c0.45,0.6,1.09,1.08,1.92,1.46
			c0.84,0.37,1.73,0.56,2.7,0.56h1.67h0.06c1.63,0.04,3.05-0.5,4.24-1.62c0.6-0.52,0.91-1.19,0.95-2.01v-0.06
			c0-0.71-0.3-1.37-0.89-1.99c-0.6-0.62-1.38-1.05-2.34-1.31l-7.75-2.35c-2.56-0.78-4.62-2.14-6.19-4.05
			c-1.56-1.92-2.34-4.05-2.34-6.4c0-2.01,0.57-3.86,1.7-5.56c1.14-1.7,2.67-3.03,4.6-4.02c1.93-0.99,4.06-1.48,6.36-1.48h1.67
			c2.23,0,4.3,0.48,6.19,1.43s3.4,2.23,4.51,3.82c0.86,1.23,0.94,2.51,0.25,3.82c-0.69,1.32-1.77,1.99-3.26,1.99
			c-1.31-0.04-2.32-0.58-3.07-1.62c-0.45-0.6-1.09-1.08-1.92-1.46c-0.84-0.37-1.73-0.56-2.7-0.56h-1.67c-1.42,0-2.64,0.36-3.68,1.09
			s-1.56,1.58-1.56,2.55c0,0.71,0.3,1.37,0.89,1.99c0.6,0.62,1.38,1.05,2.34,1.31L165.29,245.58z"/>
		<path d="M223.06,239.94c0.9,0,1.66,0.33,2.31,0.98s0.98,1.45,0.98,2.38v0.78c0,0.93-0.33,1.72-0.98,2.35s-1.43,0.95-2.31,0.95
			h-2.62c1.63,3.24,1.94,6.58,0.92,10.02c-1.03,3.44-3.09,6.08-6.19,7.91c-3.1,1.83-6.41,2.32-9.93,1.48s-6.26-2.76-8.22-5.78
			c-1.97-3.01-2.64-6.29-2-9.83c0.63-3.53,2.38-6.39,5.24-8.54c-1.23-2.16-1.52-4.45-0.9-6.87s2-4.28,4.13-5.59
			c2.12-1.31,4.4-1.69,6.83-1.15c2.43,0.54,4.35,1.86,5.72,3.93c0.75,1.12,0.8,2.27,0.17,3.43c-0.63,1.17-1.61,1.76-2.96,1.76h-1.01
			c-1.01-0.04-1.86-0.45-2.56-1.23c-0.63-0.71-1.36-0.84-2.17-0.39c-0.37,0.19-0.64,0.48-0.81,0.87s-0.21,0.78-0.11,1.17
			c0.09,0.39,0.31,0.72,0.64,0.98c0.34,0.26,0.71,0.39,1.12,0.39h14.72l0,0H223.06z M208.34,259.65c0.67,0,1.32-0.1,1.95-0.31
			c0.63-0.2,1.2-0.49,1.7-0.87c0.5-0.37,0.94-0.81,1.32-1.31c0.37-0.5,0.66-1.07,0.87-1.71c0.2-0.63,0.31-1.29,0.31-1.96
			c0-1.68-0.6-3.11-1.78-4.33c-1.19-1.21-2.63-1.82-4.33-1.82s-3.14,0.61-4.35,1.82s-1.81,2.67-1.81,4.35c0,1.7,0.61,3.13,1.81,4.33
			C205.22,259.06,206.67,259.65,208.34,259.65z"/>
		<path d="M268,259.71c1.04,0,1.92,0.36,2.65,1.09c0.73,0.73,1.09,1.6,1.09,2.63s-0.36,1.9-1.09,2.63s-1.6,1.09-2.65,1.09h-16.94
			c-1.04,0-1.92-0.36-2.65-1.09s-1.09-1.61-1.09-2.66v-35.58c0-1.04,0.36-1.93,1.09-2.66s1.59-1.09,2.62-1.09s1.89,0.36,2.62,1.09
			s1.09,1.61,1.09,2.66v31.89H268z"/>
		<path d="M309.21,267.14c0.41,1.19,0.24,2.3-0.5,3.32c-0.75,1.03-1.74,1.54-3.01,1.54c-0.78,0-1.49-0.23-2.14-0.7
			c-0.65-0.47-1.11-1.07-1.37-1.82l-9.59-28.88l-8.03,24.02c-0.15,0.37-0.34,0.72-0.56,1.04s-0.49,0.58-0.81,0.78
			c-0.32,0.21-0.66,0.37-1.03,0.5s-0.75,0.2-1.12,0.2c-1.31,0-2.31-0.51-3.04-1.54s-0.9-2.15-0.53-3.38l10.38-30.83
			c0.22-0.75,0.66-1.35,1.32-1.82c0.65-0.47,1.39-0.7,2.2-0.7h2.45c0.82,0,1.55,0.23,2.2,0.7c0.65,0.47,1.09,1.09,1.31,1.87
			L309.21,267.14z"/>
		<path d="M333.67,229.97c0.73-0.73,1.59-1.09,2.62-1.09s1.89,0.36,2.62,1.09c0.73,0.73,1.09,1.61,1.09,2.66v30.77
			c0,1.04-0.36,1.93-1.09,2.66s-1.58,1.09-2.59,1.09h-1.89c-0.71,0-1.36-0.19-1.95-0.56c-0.6-0.37-1.04-0.88-1.34-1.51l-10.38-20.55
			v18.88c0,1.04-0.36,1.93-1.09,2.66s-1.59,1.09-2.62,1.09s-1.89-0.36-2.62-1.09s-1.09-1.61-1.09-2.66v-30.83
			c0-1.04,0.36-1.93,1.09-2.66s1.6-1.09,2.65-1.09h1.84c0.45,0,0.89,0.08,1.31,0.25c0.43,0.17,0.82,0.41,1.18,0.73
			c0.35,0.32,0.62,0.68,0.81,1.09l10.38,20.61v-18.88C332.58,231.58,332.94,230.69,333.67,229.97z"/>
	</g>
</g>
</svg>
