<?xml version="1.0" encoding="utf-8"?>
<svg version="1.1" id="Ebene_1" xmlns="http://www.w3.org/2000/svg" xmlns:xlink="http://www.w3.org/1999/xlink" x="0px" y="0px"
	 viewBox="0 0 340 272" enable-background="new 0 0 340 272" xml:space="preserve">
<g>
	<g>
		<path fill="#010202" d="M208.8,144.58l-6.95-2.24l0.23,12.39l7.48,11.28l4.29-5.88L208.8,144.58z M203.26,152.25l-0.33-0.9
			c-0.21-0.59-0.18-1.22,0.08-1.78c0.26-0.56,0.73-0.99,1.32-1.2l1.52-0.55c1.21-0.44,2.54,0.19,2.98,1.4c0,0,0,0,0,0l0.33,0.9
			c0.21,0.58,0.18,1.22-0.08,1.78c-0.26,0.56-0.73,0.99-1.32,1.2l-1.52,0.55c-0.26,0.09-0.53,0.14-0.79,0.14
			c-0.34,0-0.67-0.07-0.99-0.22C203.9,153.31,203.47,152.84,203.26,152.25z M210.23,155.94l-2.51,0.91l2.02,1.68
			c0.41,0.34,0.46,0.94,0.12,1.35c-0.19,0.23-0.46,0.34-0.73,0.34c-0.22,0-0.43-0.07-0.61-0.22l-3.3-2.75
			c-0.26-0.22-0.39-0.56-0.33-0.9c0.06-0.34,0.29-0.62,0.62-0.73l4.08-1.47c0.5-0.18,1.04,0.08,1.22,0.57
			C210.98,155.21,210.72,155.76,210.23,155.94z"/>
		<path fill="#010202" d="M215.61,159.34h15.91l4.92-15.15l-12.87-9.37l-12.87,9.37L215.61,159.34z M219.49,145.84
			c0-2.05,1.67-3.72,3.72-3.72c2.05,0,3.72,1.67,3.72,3.72c0,1.1-0.48,2.08-1.23,2.77c0.76,0.68,1.23,1.67,1.23,2.77
			c0,2.05-1.67,3.72-3.72,3.72c-2.05,0-3.72-1.67-3.72-3.72c0-1.1,0.48-2.08,1.23-2.77C219.97,147.92,219.49,146.93,219.49,145.84z"
			/>
		<path fill="#010202" d="M222.6,133.14l-0.02-7.29l-11.94,4.36l-8.15,10.27l6.91,2.27L222.6,133.14z M209.57,133.39
			c0.41-0.33,1.01-0.27,1.34,0.14l0.85,1.04l1.56-1.28l-0.85-1.04c-0.33-0.41-0.27-1.01,0.14-1.35c0.41-0.33,1.01-0.27,1.34,0.14
			l1.45,1.78c0,0,0,0,0,0c0,0,0,0,0,0l1.45,1.78c0.33,0.41,0.27,1.01-0.14,1.35c-0.18,0.14-0.39,0.22-0.6,0.22
			c-0.28,0-0.55-0.12-0.74-0.35l-0.85-1.04l-2.3,1.88c-0.18,0.15-0.39,0.22-0.6,0.22c-0.28,0-0.55-0.12-0.74-0.35l-1.46-1.78
			C209.1,134.33,209.16,133.73,209.57,133.39z"/>
		<path fill="#010202" d="M207.11,151.3c0.14-0.05,0.21-0.16,0.24-0.21c0.03-0.06,0.07-0.18,0.01-0.32l-0.33-0.9
			c-0.06-0.17-0.22-0.28-0.39-0.28c-0.05,0-0.09,0.01-0.14,0.02l-1.52,0.55c-0.14,0.05-0.21,0.16-0.24,0.21s-0.07,0.18-0.01,0.32
			l0.33,0.9c0.05,0.14,0.16,0.21,0.21,0.24c0.06,0.03,0.18,0.07,0.32,0.01L207.11,151.3z"/>
		<path fill="#010202" d="M244.64,140.48l-1.9-2.4l-3.7-4.66l-2.55-3.22l-11.94-4.36l-0.02,7.29l13.2,9.61L244.64,140.48z
			 M236.03,135c-0.37,0.52-1.05,0.81-2.17,0.93l0.22,0.16c0.43,0.31,0.53,0.9,0.22,1.33c-0.19,0.26-0.48,0.4-0.78,0.4
			c-0.19,0-0.38-0.06-0.55-0.18l-2.68-1.91c-0.35-0.25-0.49-0.71-0.34-1.12c0.15-0.41,0.56-0.66,0.99-0.61
			c1.31,0.13,2.74,0.09,3.35-0.08c-0.08-0.12-0.22-0.26-0.41-0.4c-0.29-0.2-0.54-0.28-0.67-0.29c-0.33,0.3-0.82,0.34-1.2,0.07
			c-0.43-0.31-0.53-0.9-0.22-1.33c0.61-0.86,1.99-0.86,3.2-0.01c0.49,0.35,0.88,0.79,1.1,1.26
			C236.4,133.86,236.38,134.51,236.03,135z"/>
		<path fill="#010202" d="M223.21,147.65c1,0,1.81-0.81,1.81-1.81c0-1-0.81-1.81-1.81-1.81s-1.81,0.81-1.81,1.81
			C221.4,146.83,222.21,147.65,223.21,147.65z"/>
		<path fill="#010202" d="M223.21,149.56c-1,0-1.81,0.81-1.81,1.81c0,1,0.81,1.81,1.81,1.81s1.81-0.81,1.81-1.81
			C225.02,150.37,224.21,149.56,223.21,149.56z"/>
		<path fill="#010202" d="M215.4,161.25l-4.23,5.86l12.39,2.99l12.39-2.99l-4.23-5.86H215.4z M220.55,168.75
			c-1.67,0-2.93-0.88-2.93-2.04c0-0.79,0.56-1.61,1.8-2.61h-0.84c-0.53,0-0.95-0.43-0.95-0.96c0-0.53,0.43-0.96,0.95-0.96h3.95
			c0.43,0,0.81,0.29,0.92,0.71c0.11,0.42-0.07,0.86-0.45,1.08c-1.56,0.89-3.09,2.09-3.42,2.65c0.16,0.09,0.48,0.22,0.97,0.22
			c0.56,0,0.91-0.17,1.03-0.26c0.06-0.47,0.46-0.83,0.95-0.83c0.53,0,0.95,0.43,0.95,0.96
			C223.48,167.87,222.22,168.75,220.55,168.75z M230.7,166.29l-3.95,2.32c-0.15,0.09-0.32,0.13-0.48,0.13
			c-0.16,0-0.33-0.04-0.47-0.13c-0.3-0.17-0.48-0.49-0.48-0.83v-4.64c0-0.53,0.43-0.96,0.95-0.96c0.53,0,0.95,0.43,0.95,0.96v2.97
			l2.51-1.47c0.45-0.27,1.04-0.11,1.31,0.34C231.31,165.43,231.15,166.02,230.7,166.29z"/>
		<path fill="#010202" d="M268.79,118.01l-42-24.15c-2-1.15-4.45-1.15-6.45,0l-42,24.15c-2.01,1.16-3.25,3.3-3.25,5.63v48.29
			c0,2.32,1.24,4.47,3.25,5.63l42,24.15c1,0.57,2.11,0.86,3.23,0.86s2.23-0.29,3.23-0.86l42-24.15c2.01-1.16,3.25-3.3,3.25-5.63
			v-48.29C272.04,121.31,270.8,119.17,268.79,118.01z M246.95,155.04c0,0.18-0.06,0.36-0.16,0.51l-8.39,12.65
			c-0.07,0.11-0.17,0.2-0.27,0.27c-0.1,0.08-0.22,0.13-0.35,0.17l-13.99,3.38c-0.07,0.02-0.15,0.03-0.22,0.03
			c-0.07,0-0.15-0.01-0.22-0.03l-13.99-3.38c-0.13-0.03-0.26-0.09-0.36-0.18c-0.1-0.07-0.19-0.16-0.26-0.26l-8.39-12.65
			c-0.1-0.15-0.16-0.33-0.16-0.51l-0.26-14.01c0-0.12,0.02-0.24,0.06-0.35c0.03-0.11,0.09-0.22,0.17-0.32l9.17-11.56
			c0.11-0.14,0.26-0.24,0.42-0.3l13.47-4.92c0.12-0.04,0.24-0.06,0.36-0.06c0.12,0,0.24,0.01,0.36,0.06l13.47,4.92
			c0.17,0.06,0.31,0.17,0.42,0.3l2.72,3.43l3.7,4.66l2.76,3.48c0.08,0.1,0.13,0.21,0.17,0.33c0.04,0.11,0.06,0.22,0.06,0.34
			L246.95,155.04z"/>
		<path fill="#010202" d="M233.28,160.12l4.29,5.88l7.48-11.28l0.23-12.39l-6.95,2.24L233.28,160.12z M240.49,152.76
			c0.19-0.49,0.74-0.74,1.23-0.56c0.49,0.19,0.74,0.74,0.56,1.23l-1.27,3.38c-0.13,0.35-0.45,0.59-0.82,0.62c-0.02,0-0.05,0-0.07,0
			c-0.35,0-0.67-0.19-0.84-0.49l-2.69-4.88c-0.26-0.46-0.09-1.04,0.37-1.3c0.46-0.26,1.04-0.09,1.3,0.37l1.69,3.06L240.49,152.76z"
			/>
	</g>
	<g>
		<path fill="#010202" d="M176.24,76.03c-0.02-0.08-0.09-0.13-0.17-0.13h-12.4c-0.08,0-0.15,0.05-0.17,0.13l-1.14,3.82
			c-0.02,0.07,0,0.13,0.03,0.16c0.02,0.03,0.07,0.07,0.15,0.07h14.68c0.08,0,0.12-0.04,0.15-0.07c0.02-0.03,0.05-0.09,0.03-0.16
			L176.24,76.03z"/>
		<path fill="#010202" d="M193.65,24.51c0-1.25-1.01-2.26-2.26-2.26h-34.62h-3.67h-4.77c-1.24,0-2.26,1.01-2.26,2.26v33.16h47.57
			V24.51z M191.75,53.83c0,1.06-0.86,1.93-1.93,1.93H149.9c-1.06,0-1.93-0.87-1.93-1.93V26.08c0-1.06,0.86-1.93,1.93-1.93h39.92
			c1.06,0,1.93,0.87,1.93,1.93V53.83z"/>
		<path fill="#010202" d="M149.9,26.05c-0.02,0-0.03,0.01-0.03,0.03v27.76c0,0.02,0.01,0.03,0.03,0.03h39.92
			c0.02,0,0.03-0.01,0.03-0.03V26.08c0-0.02-0.01-0.03-0.03-0.03H149.9z"/>
		<path fill="#010202" d="M190.17,62.99c-0.03-0.1-0.13-0.18-0.24-0.18h-40.14c-0.11,0-0.21,0.07-0.24,0.18l-0.34,1.16l-1.09,3.67
			l-0.77,2.6c-0.03,0.1,0,0.17,0.04,0.22c0.03,0.05,0.1,0.1,0.2,0.1h44.57c0.1,0,0.16-0.05,0.2-0.1c0.03-0.05,0.07-0.12,0.04-0.22
			L190.17,62.99z"/>
		<path fill="#010202" d="M193.89,59.57h-48.06l-6.39,21.46c-0.16,0.55-0.06,1.12,0.28,1.58c0.34,0.46,0.86,0.72,1.44,0.72h45.67
			h3.67h8.06c0.57,0,1.09-0.26,1.44-0.72c0.34-0.46,0.44-1.04,0.28-1.58L193.89,59.57z M153.86,76.32h-0.75
			c-0.52,0-0.95-0.43-0.95-0.95c0-0.52,0.42-0.95,0.95-0.95h0.75c0.52,0,0.95,0.43,0.95,0.95C154.81,75.9,154.38,76.32,153.86,76.32
			z M157.2,76.32h-0.75c-0.52,0-0.95-0.43-0.95-0.95c0-0.52,0.42-0.95,0.95-0.95h0.75c0.52,0,0.95,0.43,0.95,0.95
			C158.15,75.9,157.72,76.32,157.2,76.32z M178.87,81.14c-0.4,0.53-1,0.84-1.67,0.84h-14.68c-0.66,0-1.27-0.31-1.67-0.84
			c-0.4-0.53-0.52-1.2-0.33-1.84l1.14-3.82c0.26-0.88,1.08-1.49,1.99-1.49h12.4c0.91,0,1.73,0.61,1.99,1.49l1.14,3.82c0,0,0,0,0,0
			C179.38,79.94,179.27,80.61,178.87,81.14z M183.28,76.32h-0.75c-0.52,0-0.95-0.43-0.95-0.95c0-0.52,0.42-0.95,0.95-0.95h0.75
			c0.52,0,0.95,0.43,0.95,0.95C184.23,75.9,183.8,76.32,183.28,76.32z M186.62,76.32h-0.75c-0.52,0-0.95-0.43-0.95-0.95
			c0-0.52,0.42-0.95,0.95-0.95h0.75c0.52,0,0.95,0.43,0.95,0.95C187.57,75.9,187.14,76.32,186.62,76.32z M193.87,71.78
			c-0.41,0.55-1.04,0.86-1.72,0.86h-44.57c-0.68,0-1.31-0.32-1.72-0.86c-0.41-0.55-0.53-1.24-0.34-1.9l0.77-2.6l1.09-3.67l0.34-1.16
			c0.27-0.9,1.11-1.53,2.06-1.53h40.14c0.94,0,1.79,0.63,2.06,1.53l2.21,7.43C194.4,70.54,194.27,71.23,193.87,71.78z"/>
		<path fill="#010202" d="M214.33,25.01l-41.3-24.15c-1.96-1.15-4.38-1.15-6.34,0l-41.3,24.15c-1.98,1.16-3.2,3.3-3.2,5.63v48.29
			c0,2.32,1.22,4.47,3.2,5.63l41.3,24.15c0.98,0.57,2.08,0.86,3.17,0.86c1.09,0,2.19-0.29,3.17-0.86l41.3-24.15
			c1.98-1.16,3.2-3.3,3.2-5.63V30.64C217.53,28.31,216.31,26.16,214.33,25.01z M201.52,83.74c-0.7,0.94-1.78,1.49-2.96,1.49h-8.06
			h-3.67h-45.67c-1.18,0-2.25-0.54-2.96-1.49c-0.7-0.94-0.91-2.13-0.58-3.26l6.55-22V24.51c0-2.29,1.86-4.16,4.15-4.16h4.77h3.67
			h34.62c2.29,0,4.15,1.87,4.15,4.16v33.97l6.55,22C202.43,81.61,202.22,82.8,201.52,83.74z"/>
	</g>
	<g>
		<polygon fill="#010202" points="128.37,148.43 125.51,140.7 122,144.94 122.37,147.4 		"/>
		<path fill="#010202" d="M108.29,143.03l3.64-4.94c0.18-0.25,0.13-0.59-0.12-0.77l-4.93-3.64c-0.24-0.18-0.59-0.13-0.77,0.12
			l-3.64,4.94c-0.18,0.24-0.13,0.59,0.12,0.77l4.93,3.64C107.76,143.33,108.11,143.28,108.29,143.03z"/>
		<path fill="#010202" d="M122.35,160.17l-5.11-33.92c-0.12-0.77-0.85-1.31-1.62-1.2l-20.4,3.08c-0.77,0.12-1.31,0.85-1.19,1.62
			l2.09,13.87l1.27,8.41l1.81,11.99c0.12,0.78,0.84,1.31,1.62,1.2l20.05-3.03C121.82,162.05,122.49,161.13,122.35,160.17z
			 M100.92,137.59l3.64-4.94c0.81-1.1,2.36-1.34,3.46-0.52l4.93,3.64c1.1,0.81,1.33,2.37,0.52,3.47l-3.64,4.94
			c-0.8,1.09-2.38,1.33-3.46,0.52l-4.93-3.64C100.36,140.25,100.12,138.67,100.92,137.59z M102.42,151.92
			c-0.08-0.53,0.28-1.02,0.81-1.1l11.43-1.73c0.53-0.08,1.02,0.28,1.09,0.81c0.08,0.53-0.28,1.02-0.81,1.1l-11.43,1.73
			c-0.05,0.01-0.1,0.01-0.14,0.01C102.9,152.74,102.49,152.4,102.42,151.92z M115.86,157.12l-11.43,1.73
			c-0.05,0.01-0.1,0.01-0.14,0.01c-0.47,0-0.88-0.34-0.95-0.82c-0.08-0.53,0.28-1.02,0.81-1.1l11.43-1.73
			c0.53-0.08,1.02,0.28,1.1,0.81C116.75,156.55,116.39,157.04,115.86,157.12z"/>
		<path fill="#010202" d="M161.39,118.01l-42-24.15c-2-1.15-4.45-1.15-6.45,0l-42,24.15c-2.01,1.16-3.25,3.3-3.25,5.63v48.29
			c0,2.32,1.24,4.47,3.25,5.63l42,24.15c1,0.57,2.11,0.86,3.23,0.86s2.23-0.29,3.23-0.86l42-24.15c2.01-1.16,3.25-3.3,3.25-5.63
			v-48.29C164.64,121.31,163.4,119.17,161.39,118.01z M140.18,135.9L140.18,135.9l-5.69,33.46c-0.07,0.4-0.2,0.79-0.39,1.14
			c-0.75,1.38-2.33,2.15-3.88,1.89l-19.64-3.35c-1.55-0.26-2.71-1.44-3.01-2.9l-6.49,0.98c-1.81,0.27-3.54-1.01-3.81-2.81
			l-1.81-11.99l-1.27-8.41l-2.09-13.87c-0.27-1.81,1.01-3.54,2.81-3.81l20.4-3.08c1.81-0.27,3.54,1.01,3.81,2.81l0.4,2.66l17.62,3
			C139.17,131.97,140.53,133.89,140.18,135.9z"/>
		<path fill="#010202" d="M136.83,133.53l-16.99-2.9l1.77,11.76l2.65-3.2c0.39-0.48,0.99-0.7,1.61-0.6c0.61,0.1,1.1,0.51,1.32,1.09
			l3.11,8.41c0.45,1.22-0.62,2.5-1.89,2.29l-5.73-0.98l0.88,5.83l5.2,0.89c0.52,0.09,0.88,0.59,0.79,1.11
			c-0.08,0.47-0.49,0.8-0.95,0.8c-0.05,0-0.11,0-0.16-0.01l-4.57-0.78l0.45,2.99c0.05,0.32,0.05,0.64,0.01,0.95l3.48,0.59
			c0.52,0.09,0.88,0.59,0.79,1.11c-0.08,0.47-0.49,0.8-0.95,0.8c-0.05,0-0.11,0-0.16-0.01l-4-0.68c-0.63,0.69-1.43,0.97-2.32,1.11
			l-11.65,1.76c0.18,0.65,0.71,1.17,1.42,1.29l19.64,3.35c0.96,0.16,1.89-0.5,2.05-1.46l5.69-33.46
			C138.45,134.61,137.8,133.69,136.83,133.53z"/>
	</g>
</g>
<g>
	<path d="M27.72,246.45c0.72-0.73,1.6-1.09,2.62-1.09c1.02,0,1.9,0.36,2.62,1.09c0.73,0.73,1.09,1.59,1.09,2.6v9.55
		c0,1.01-0.33,1.86-1,2.57c-1.75,1.9-3.82,3.37-6.22,4.41c-2.4,1.04-4.88,1.56-7.45,1.56H18.6c-3.38,0-6.52-0.84-9.4-2.51
		c-2.88-1.68-5.16-3.96-6.83-6.84c-1.67-2.88-2.51-6.02-2.51-9.41v-0.73c0-3.39,0.84-6.52,2.51-9.41c1.67-2.88,3.95-5.17,6.83-6.84
		c2.88-1.68,6.01-2.51,9.4-2.51h0.78c3.72,0,7.16,1.04,10.32,3.13c0.97,0.67,1.5,1.6,1.59,2.79c0.09,1.19-0.31,2.2-1.2,3.02
		c-0.63,0.56-1.38,0.88-2.23,0.95c-0.86,0.08-1.64-0.13-2.34-0.61c-1.9-1.23-3.94-1.84-6.13-1.84H18.6c-3.12,0-5.79,1.11-8,3.32
		c-2.21,2.22-3.32,4.89-3.32,8.01v0.73c0,3.13,1.11,5.8,3.32,8.01c2.21,2.22,4.88,3.32,8,3.32h0.78c2.75,0,5.17-0.89,7.25-2.68
		v-7.99C26.63,248.04,26.99,247.18,27.72,246.45z"/>
	<path d="M71.52,267.14c0.41,1.19,0.24,2.3-0.5,3.32c-0.74,1.02-1.75,1.54-3.01,1.54c-0.78,0-1.5-0.23-2.15-0.7
		c-0.65-0.47-1.11-1.07-1.37-1.82l-9.59-28.87l-8.03,24.02c-0.15,0.37-0.34,0.72-0.56,1.03c-0.22,0.32-0.49,0.58-0.81,0.78
		c-0.32,0.21-0.66,0.37-1.03,0.5c-0.37,0.13-0.74,0.2-1.12,0.2c-1.3,0-2.31-0.51-3.04-1.54c-0.73-1.02-0.9-2.15-0.53-3.38
		l10.37-30.83c0.22-0.74,0.66-1.35,1.31-1.81c0.65-0.47,1.38-0.7,2.2-0.7h2.45c0.82,0,1.55,0.23,2.2,0.7
		c0.65,0.47,1.09,1.09,1.31,1.87L71.52,267.14z"/>
	<path d="M108.05,228.88c1,0,1.87,0.36,2.59,1.09c0.73,0.73,1.09,1.61,1.09,2.65v30.77c0,1.04-0.36,1.93-1.09,2.65
		c-0.72,0.73-1.6,1.09-2.62,1.09c-1.02,0-1.9-0.36-2.62-1.09c-0.72-0.73-1.09-1.61-1.09-2.65v-16.31l-7.19,16.87
		c-0.3,0.71-0.75,1.27-1.37,1.68c-0.61,0.41-1.29,0.61-2.04,0.61c-0.74,0-1.43-0.2-2.06-0.61c-0.63-0.41-1.1-0.97-1.39-1.68
		l-7.19-16.87v16.31c0,1.04-0.36,1.93-1.09,2.65c-0.72,0.73-1.6,1.09-2.62,1.09c-1.02,0-1.9-0.36-2.62-1.09
		c-0.73-0.73-1.09-1.61-1.09-2.65v-30.77c0-1.04,0.36-1.93,1.09-2.65c0.72-0.73,1.61-1.09,2.65-1.09h1.56c0.74,0,1.42,0.2,2.04,0.61
		c0.61,0.41,1.07,0.95,1.37,1.62l9.37,21.89l9.31-21.89c0.19-0.45,0.45-0.84,0.81-1.17s0.75-0.6,1.2-0.78
		c0.45-0.19,0.91-0.28,1.39-0.28H108.05z"/>
	<path d="M137.49,259.71c1,0,1.87,0.36,2.59,1.09c0.72,0.73,1.09,1.6,1.09,2.63c0,1.02-0.36,1.9-1.09,2.62
		c-0.73,0.73-1.59,1.09-2.59,1.09h-16.45c-1,0-1.88-0.36-2.62-1.09c-0.74-0.73-1.12-1.61-1.12-2.65v-30.77
		c0-1.01,0.37-1.88,1.12-2.62c0.74-0.74,1.62-1.12,2.62-1.12h16.45c1,0,1.87,0.36,2.59,1.09c0.72,0.73,1.09,1.6,1.09,2.62
		c0,1.02-0.36,1.9-1.09,2.63c-0.73,0.73-1.59,1.09-2.59,1.09h-12.77v7.99h7.97c1.04,0,1.92,0.36,2.65,1.09
		c0.72,0.73,1.09,1.6,1.09,2.62c0,1.02-0.36,1.9-1.09,2.63c-0.73,0.73-1.61,1.09-2.65,1.09h-7.97v7.99H137.49z"/>
	<path d="M165.15,245.58c2.57,0.75,4.63,2.09,6.19,4.02c1.56,1.94,2.34,4.08,2.34,6.42v0.06c0,2.87-1.04,5.31-3.12,7.32
		c-2.64,2.53-5.8,3.78-9.48,3.74h-0.06h-1.67c-2.23,0-4.29-0.47-6.19-1.42c-1.9-0.95-3.4-2.22-4.52-3.83
		c-0.86-1.23-0.93-2.5-0.22-3.83c0.71-1.32,1.8-1.98,3.29-1.98c1.26,0.04,2.27,0.58,3.01,1.62c0.45,0.6,1.09,1.08,1.92,1.45
		c0.84,0.37,1.74,0.56,2.7,0.56h1.67h0.06c1.64,0.04,3.05-0.5,4.24-1.62c0.59-0.52,0.91-1.19,0.95-2.01v-0.06
		c0-0.71-0.3-1.37-0.89-1.98c-0.6-0.61-1.38-1.05-2.34-1.31l-7.75-2.35c-2.57-0.78-4.63-2.13-6.19-4.05
		c-1.56-1.92-2.34-4.05-2.34-6.39c0-2.01,0.57-3.86,1.7-5.56c1.13-1.69,2.67-3.03,4.6-4.02c1.93-0.99,4.05-1.48,6.36-1.48h1.67
		c2.23,0,4.29,0.47,6.19,1.42c1.9,0.95,3.4,2.23,4.52,3.83c0.86,1.23,0.94,2.5,0.25,3.83c-0.69,1.32-1.78,1.98-3.26,1.98
		c-1.3-0.04-2.32-0.58-3.07-1.62c-0.45-0.6-1.09-1.08-1.92-1.45c-0.84-0.37-1.74-0.56-2.7-0.56h-1.67c-1.41,0-2.64,0.36-3.68,1.09
		c-1.04,0.73-1.56,1.57-1.56,2.54c0,0.71,0.3,1.37,0.89,1.98c0.59,0.61,1.37,1.05,2.34,1.31L165.15,245.58z"/>
	<path d="M222.92,239.94c0.89,0,1.66,0.33,2.31,0.98c0.65,0.65,0.98,1.44,0.98,2.37v0.78c0,0.93-0.33,1.71-0.98,2.35
		c-0.65,0.63-1.42,0.95-2.31,0.95h-2.62c1.64,3.24,1.94,6.58,0.92,10.02c-1.02,3.44-3.09,6.08-6.19,7.9
		c-3.1,1.82-6.41,2.32-9.93,1.48c-3.51-0.84-6.25-2.76-8.23-5.78c-1.97-3.02-2.64-6.29-2.01-9.83c0.63-3.54,2.38-6.38,5.24-8.55
		c-1.23-2.16-1.52-4.45-0.89-6.87c0.63-2.42,2.01-4.28,4.13-5.58c2.12-1.3,4.4-1.68,6.83-1.14c2.43,0.54,4.34,1.85,5.72,3.94
		c0.74,1.12,0.8,2.26,0.17,3.43s-1.62,1.76-2.96,1.76h-1c-1-0.04-1.86-0.45-2.57-1.23c-0.63-0.71-1.36-0.84-2.17-0.39
		c-0.37,0.19-0.64,0.47-0.81,0.87c-0.17,0.39-0.21,0.78-0.11,1.17c0.09,0.39,0.31,0.72,0.64,0.98c0.33,0.26,0.71,0.39,1.12,0.39
		H222.92z M208.2,259.66c0.67,0,1.32-0.1,1.95-0.31c0.63-0.2,1.2-0.49,1.7-0.87c0.5-0.37,0.94-0.81,1.31-1.31
		c0.37-0.5,0.66-1.07,0.86-1.7c0.2-0.63,0.31-1.28,0.31-1.95c0-1.68-0.6-3.12-1.78-4.33c-1.19-1.21-2.63-1.82-4.32-1.82
		c-1.69,0-3.14,0.61-4.35,1.82c-1.21,1.21-1.81,2.66-1.81,4.36c0,1.69,0.6,3.14,1.81,4.33C205.09,259.06,206.53,259.66,208.2,259.66
		z"/>
	<path d="M267.87,259.71c1.04,0,1.92,0.36,2.65,1.09c0.72,0.73,1.09,1.6,1.09,2.63c0,1.02-0.36,1.9-1.09,2.62
		c-0.72,0.73-1.61,1.09-2.65,1.09h-16.95c-1.04,0-1.92-0.36-2.65-1.09c-0.73-0.73-1.09-1.61-1.09-2.65v-35.58
		c0-1.04,0.36-1.93,1.09-2.65c0.72-0.73,1.6-1.09,2.62-1.09c1.02,0,1.9,0.36,2.62,1.09c0.73,0.73,1.09,1.61,1.09,2.65v31.89H267.87z
		"/>
	<path d="M309.08,267.14c0.41,1.19,0.24,2.3-0.5,3.32c-0.74,1.02-1.75,1.54-3.01,1.54c-0.78,0-1.5-0.23-2.15-0.7
		c-0.65-0.47-1.11-1.07-1.37-1.82l-9.59-28.87l-8.03,24.02c-0.15,0.37-0.34,0.72-0.56,1.03c-0.22,0.32-0.49,0.58-0.81,0.78
		c-0.32,0.21-0.66,0.37-1.03,0.5c-0.37,0.13-0.74,0.2-1.12,0.2c-1.3,0-2.31-0.51-3.04-1.54c-0.73-1.02-0.9-2.15-0.53-3.38
		l10.37-30.83c0.22-0.74,0.66-1.35,1.31-1.81c0.65-0.47,1.38-0.7,2.2-0.7h2.45c0.82,0,1.55,0.23,2.2,0.7
		c0.65,0.47,1.09,1.09,1.31,1.87L309.08,267.14z"/>
	<path d="M333.53,229.97c0.72-0.73,1.6-1.09,2.62-1.09c1.02,0,1.9,0.36,2.62,1.09c0.72,0.73,1.09,1.61,1.09,2.65v30.77
		c0,1.04-0.36,1.93-1.09,2.65c-0.72,0.73-1.59,1.09-2.59,1.09h-1.9c-0.71,0-1.36-0.19-1.95-0.56c-0.6-0.37-1.04-0.87-1.34-1.51
		l-10.37-20.55v18.88c0,1.04-0.36,1.93-1.09,2.65c-0.72,0.73-1.6,1.09-2.62,1.09c-1.02,0-1.9-0.36-2.62-1.09
		c-0.73-0.73-1.09-1.61-1.09-2.65v-30.83c0-1.04,0.36-1.93,1.09-2.65c0.72-0.73,1.61-1.09,2.65-1.09h1.84
		c0.45,0,0.88,0.08,1.31,0.25c0.43,0.17,0.82,0.41,1.17,0.73c0.35,0.32,0.62,0.68,0.81,1.09l10.37,20.61v-18.88
		C332.44,231.58,332.81,230.7,333.53,229.97z"/>
</g>
</svg>
